<mxfile host="app.diagrams.net" agent="Mozilla/5.0 (Windows NT 10.0; Win64; x64) AppleWebKit/537.36 (KHTML, like Gecko) Chrome/134.0.0.0 Safari/537.36" version="26.1.1">
  <diagram name="Page-1" id="42789a77-a242-8287-6e28-9cd8cfd52e62">
    <mxGraphModel dx="1843" dy="1697" grid="1" gridSize="10" guides="1" tooltips="1" connect="1" arrows="1" fold="1" page="1" pageScale="1" pageWidth="1100" pageHeight="850" background="none" math="0" shadow="0">
      <root>
        <mxCell id="0" />
        <mxCell id="1" parent="0" />
        <mxCell id="nwb41KQ4arSCl9Ie-RCh-49" style="edgeStyle=orthogonalEdgeStyle;rounded=0;orthogonalLoop=1;jettySize=auto;html=1;exitX=0;exitY=0.5;exitDx=0;exitDy=0;entryX=1;entryY=0.5;entryDx=0;entryDy=0;" edge="1" parent="1" source="1ea317790d2ca983-1" target="nwb41KQ4arSCl9Ie-RCh-48">
          <mxGeometry relative="1" as="geometry" />
        </mxCell>
        <mxCell id="1ea317790d2ca983-1" value="&lt;font style=&quot;vertical-align: inherit;&quot;&gt;&lt;font style=&quot;vertical-align: inherit;&quot;&gt;поставщик&lt;/font&gt;&lt;/font&gt;" style="ellipse;whiteSpace=wrap;html=1;rounded=0;shadow=1;comic=0;labelBackgroundColor=none;strokeWidth=1;fontFamily=Verdana;fontSize=12;align=center;" parent="1" vertex="1">
          <mxGeometry x="460" y="-90" width="90" height="60" as="geometry" />
        </mxCell>
        <mxCell id="nwb41KQ4arSCl9Ie-RCh-35" style="edgeStyle=orthogonalEdgeStyle;rounded=0;orthogonalLoop=1;jettySize=auto;html=1;exitX=0;exitY=0.5;exitDx=0;exitDy=0;entryX=0;entryY=0.5;entryDx=0;entryDy=0;" edge="1" parent="1" source="1ea317790d2ca983-9" target="nwb41KQ4arSCl9Ie-RCh-13">
          <mxGeometry relative="1" as="geometry">
            <Array as="points">
              <mxPoint x="140" y="215" />
              <mxPoint x="140" y="370" />
              <mxPoint x="203" y="370" />
            </Array>
          </mxGeometry>
        </mxCell>
        <mxCell id="nwb41KQ4arSCl9Ie-RCh-71" style="edgeStyle=orthogonalEdgeStyle;rounded=0;orthogonalLoop=1;jettySize=auto;html=1;exitX=0;exitY=0;exitDx=0;exitDy=0;entryX=0;entryY=0.5;entryDx=0;entryDy=0;" edge="1" parent="1" source="1ea317790d2ca983-9" target="nwb41KQ4arSCl9Ie-RCh-69">
          <mxGeometry relative="1" as="geometry">
            <Array as="points">
              <mxPoint x="50" y="197" />
              <mxPoint x="50" y="510" />
              <mxPoint x="198" y="510" />
            </Array>
          </mxGeometry>
        </mxCell>
        <mxCell id="nwb41KQ4arSCl9Ie-RCh-81" style="edgeStyle=orthogonalEdgeStyle;rounded=0;orthogonalLoop=1;jettySize=auto;html=1;exitX=1;exitY=0.5;exitDx=0;exitDy=0;entryX=0;entryY=0.5;entryDx=0;entryDy=0;" edge="1" parent="1" source="1ea317790d2ca983-9" target="nwb41KQ4arSCl9Ie-RCh-14">
          <mxGeometry relative="1" as="geometry" />
        </mxCell>
        <mxCell id="1ea317790d2ca983-9" value="&lt;font style=&quot;vertical-align: inherit;&quot;&gt;&lt;font style=&quot;vertical-align: inherit;&quot;&gt;работник склада&lt;/font&gt;&lt;/font&gt;" style="ellipse;whiteSpace=wrap;html=1;rounded=0;shadow=1;comic=0;labelBackgroundColor=none;strokeWidth=1;fontFamily=Verdana;fontSize=12;align=center;" parent="1" vertex="1">
          <mxGeometry x="210" y="190" width="75" height="50" as="geometry" />
        </mxCell>
        <mxCell id="nwb41KQ4arSCl9Ie-RCh-3" value="" style="rounded=1;html=1;labelBackgroundColor=none;startArrow=none;startFill=0;startSize=5;endArrow=classicThin;endFill=1;endSize=5;jettySize=auto;orthogonalLoop=1;strokeColor=none;strokeWidth=1;fontFamily=Verdana;fontSize=12" edge="1" parent="1" source="1ea317790d2ca983-1">
          <mxGeometry relative="1" as="geometry">
            <mxPoint x="495" y="140" as="sourcePoint" />
            <mxPoint x="495" y="180" as="targetPoint" />
          </mxGeometry>
        </mxCell>
        <mxCell id="nwb41KQ4arSCl9Ie-RCh-12" value="получение товара" style="text;html=1;align=center;verticalAlign=middle;resizable=0;points=[];autosize=1;strokeColor=none;fillColor=none;" vertex="1" parent="1">
          <mxGeometry x="130" y="100" width="120" height="30" as="geometry" />
        </mxCell>
        <mxCell id="nwb41KQ4arSCl9Ie-RCh-13" value="стеллаж" style="ellipse;whiteSpace=wrap;html=1;" vertex="1" parent="1">
          <mxGeometry x="202.5" y="410" width="90" height="50" as="geometry" />
        </mxCell>
        <mxCell id="nwb41KQ4arSCl9Ie-RCh-14" value="Сканер" style="ellipse;whiteSpace=wrap;html=1;" vertex="1" parent="1">
          <mxGeometry x="337.5" y="190" width="82.5" height="50" as="geometry" />
        </mxCell>
        <mxCell id="nwb41KQ4arSCl9Ie-RCh-86" style="edgeStyle=orthogonalEdgeStyle;rounded=0;orthogonalLoop=1;jettySize=auto;html=1;exitX=0.5;exitY=0;exitDx=0;exitDy=0;entryX=0.5;entryY=1;entryDx=0;entryDy=0;" edge="1" parent="1" source="nwb41KQ4arSCl9Ie-RCh-15" target="1ea317790d2ca983-9">
          <mxGeometry relative="1" as="geometry" />
        </mxCell>
        <mxCell id="nwb41KQ4arSCl9Ie-RCh-15" value="терминал работника склада" style="ellipse;whiteSpace=wrap;html=1;" vertex="1" parent="1">
          <mxGeometry x="202.5" y="320" width="90" height="50" as="geometry" />
        </mxCell>
        <mxCell id="nwb41KQ4arSCl9Ie-RCh-20" style="edgeStyle=orthogonalEdgeStyle;rounded=0;orthogonalLoop=1;jettySize=auto;html=1;exitX=0;exitY=0.5;exitDx=0;exitDy=0;entryX=1;entryY=0.5;entryDx=0;entryDy=0;" edge="1" parent="1" source="nwb41KQ4arSCl9Ie-RCh-16" target="nwb41KQ4arSCl9Ie-RCh-15">
          <mxGeometry relative="1" as="geometry" />
        </mxCell>
        <mxCell id="nwb41KQ4arSCl9Ie-RCh-42" style="edgeStyle=orthogonalEdgeStyle;rounded=0;orthogonalLoop=1;jettySize=auto;html=1;exitX=0;exitY=1;exitDx=0;exitDy=0;entryX=1;entryY=0.5;entryDx=0;entryDy=0;" edge="1" parent="1" source="nwb41KQ4arSCl9Ie-RCh-16" target="nwb41KQ4arSCl9Ie-RCh-39">
          <mxGeometry relative="1" as="geometry" />
        </mxCell>
        <mxCell id="nwb41KQ4arSCl9Ie-RCh-50" style="edgeStyle=orthogonalEdgeStyle;rounded=0;orthogonalLoop=1;jettySize=auto;html=1;exitX=0.5;exitY=0;exitDx=0;exitDy=0;entryX=1;entryY=0.5;entryDx=0;entryDy=0;" edge="1" parent="1" source="nwb41KQ4arSCl9Ie-RCh-16" target="1ea317790d2ca983-1">
          <mxGeometry relative="1" as="geometry" />
        </mxCell>
        <mxCell id="nwb41KQ4arSCl9Ie-RCh-63" style="edgeStyle=orthogonalEdgeStyle;rounded=0;orthogonalLoop=1;jettySize=auto;html=1;exitX=1;exitY=0.5;exitDx=0;exitDy=0;entryX=1;entryY=0;entryDx=0;entryDy=0;" edge="1" parent="1" source="nwb41KQ4arSCl9Ie-RCh-16" target="nwb41KQ4arSCl9Ie-RCh-44">
          <mxGeometry relative="1" as="geometry" />
        </mxCell>
        <mxCell id="nwb41KQ4arSCl9Ie-RCh-94" style="edgeStyle=orthogonalEdgeStyle;rounded=0;orthogonalLoop=1;jettySize=auto;html=1;exitX=1;exitY=0;exitDx=0;exitDy=0;entryX=0;entryY=0.5;entryDx=0;entryDy=0;" edge="1" parent="1" source="nwb41KQ4arSCl9Ie-RCh-16" target="nwb41KQ4arSCl9Ie-RCh-93">
          <mxGeometry relative="1" as="geometry">
            <Array as="points">
              <mxPoint x="690" y="250" />
              <mxPoint x="690" y="130" />
            </Array>
          </mxGeometry>
        </mxCell>
        <mxCell id="nwb41KQ4arSCl9Ie-RCh-16" value="Информационная система склада" style="ellipse;whiteSpace=wrap;html=1;" vertex="1" parent="1">
          <mxGeometry x="560" y="240" width="107.5" height="70" as="geometry" />
        </mxCell>
        <mxCell id="nwb41KQ4arSCl9Ie-RCh-23" value="Формирование задания на основе&amp;nbsp; входных данных" style="text;html=1;align=center;verticalAlign=middle;whiteSpace=wrap;rounded=0;" vertex="1" parent="1">
          <mxGeometry x="331.25" y="290" width="60" height="30" as="geometry" />
        </mxCell>
        <mxCell id="nwb41KQ4arSCl9Ie-RCh-25" value="передача данных о товаре" style="text;html=1;align=center;verticalAlign=middle;whiteSpace=wrap;rounded=0;" vertex="1" parent="1">
          <mxGeometry x="440" y="180" width="60" height="30" as="geometry" />
        </mxCell>
        <mxCell id="nwb41KQ4arSCl9Ie-RCh-26" value="сканирование данных о товаре" style="text;html=1;align=center;verticalAlign=middle;whiteSpace=wrap;rounded=0;" vertex="1" parent="1">
          <mxGeometry x="277.5" y="170" width="60" height="30" as="geometry" />
        </mxCell>
        <mxCell id="nwb41KQ4arSCl9Ie-RCh-27" value="Перемещение&amp;nbsp;&lt;div&gt;товара на основе задания&lt;/div&gt;" style="text;html=1;align=center;verticalAlign=middle;whiteSpace=wrap;rounded=0;" vertex="1" parent="1">
          <mxGeometry x="70" y="240" width="60" height="30" as="geometry" />
        </mxCell>
        <mxCell id="nwb41KQ4arSCl9Ie-RCh-88" style="edgeStyle=orthogonalEdgeStyle;rounded=0;orthogonalLoop=1;jettySize=auto;html=1;exitX=0;exitY=0.5;exitDx=0;exitDy=0;entryX=1;entryY=0.5;entryDx=0;entryDy=0;" edge="1" parent="1" source="nwb41KQ4arSCl9Ie-RCh-39" target="nwb41KQ4arSCl9Ie-RCh-13">
          <mxGeometry relative="1" as="geometry" />
        </mxCell>
        <mxCell id="nwb41KQ4arSCl9Ie-RCh-39" value="Система индикации" style="ellipse;whiteSpace=wrap;html=1;" vertex="1" parent="1">
          <mxGeometry x="425" y="360" width="90" height="60" as="geometry" />
        </mxCell>
        <mxCell id="nwb41KQ4arSCl9Ie-RCh-41" value="Сигнал индикации" style="text;html=1;align=center;verticalAlign=middle;whiteSpace=wrap;rounded=0;" vertex="1" parent="1">
          <mxGeometry x="292.5" y="380" width="60" height="30" as="geometry" />
        </mxCell>
        <mxCell id="nwb41KQ4arSCl9Ie-RCh-43" value="Указание сигнала индикации" style="text;html=1;align=center;verticalAlign=middle;whiteSpace=wrap;rounded=0;" vertex="1" parent="1">
          <mxGeometry x="475" y="320" width="60" height="30" as="geometry" />
        </mxCell>
        <mxCell id="nwb41KQ4arSCl9Ie-RCh-45" style="edgeStyle=orthogonalEdgeStyle;rounded=0;orthogonalLoop=1;jettySize=auto;html=1;exitX=0.5;exitY=0;exitDx=0;exitDy=0;entryX=0.5;entryY=1;entryDx=0;entryDy=0;" edge="1" parent="1" source="nwb41KQ4arSCl9Ie-RCh-44" target="nwb41KQ4arSCl9Ie-RCh-16">
          <mxGeometry relative="1" as="geometry" />
        </mxCell>
        <mxCell id="nwb41KQ4arSCl9Ie-RCh-61" style="edgeStyle=orthogonalEdgeStyle;rounded=0;orthogonalLoop=1;jettySize=auto;html=1;exitX=0;exitY=1;exitDx=0;exitDy=0;entryX=1;entryY=0;entryDx=0;entryDy=0;" edge="1" parent="1" source="nwb41KQ4arSCl9Ie-RCh-44" target="nwb41KQ4arSCl9Ie-RCh-47">
          <mxGeometry relative="1" as="geometry" />
        </mxCell>
        <mxCell id="nwb41KQ4arSCl9Ie-RCh-44" value="Сеть интернет" style="ellipse;whiteSpace=wrap;html=1;" vertex="1" parent="1">
          <mxGeometry x="643.75" y="380" width="120" height="80" as="geometry" />
        </mxCell>
        <mxCell id="nwb41KQ4arSCl9Ie-RCh-46" value="Получение и обработка&amp;nbsp;&lt;div&gt;заказов&lt;/div&gt;" style="text;html=1;align=center;verticalAlign=middle;whiteSpace=wrap;rounded=0;" vertex="1" parent="1">
          <mxGeometry x="660" y="300" width="60" height="30" as="geometry" />
        </mxCell>
        <mxCell id="nwb41KQ4arSCl9Ie-RCh-58" style="edgeStyle=orthogonalEdgeStyle;rounded=0;orthogonalLoop=1;jettySize=auto;html=1;exitX=1;exitY=0.5;exitDx=0;exitDy=0;entryX=0.5;entryY=1;entryDx=0;entryDy=0;" edge="1" parent="1" source="nwb41KQ4arSCl9Ie-RCh-47" target="nwb41KQ4arSCl9Ie-RCh-44">
          <mxGeometry relative="1" as="geometry" />
        </mxCell>
        <mxCell id="nwb41KQ4arSCl9Ie-RCh-47" value="клиент" style="ellipse;whiteSpace=wrap;html=1;" vertex="1" parent="1">
          <mxGeometry x="475" y="470" width="110" height="70" as="geometry" />
        </mxCell>
        <mxCell id="nwb41KQ4arSCl9Ie-RCh-53" style="edgeStyle=orthogonalEdgeStyle;rounded=0;orthogonalLoop=1;jettySize=auto;html=1;exitX=0.5;exitY=1;exitDx=0;exitDy=0;" edge="1" parent="1" source="nwb41KQ4arSCl9Ie-RCh-48" target="nwb41KQ4arSCl9Ie-RCh-52">
          <mxGeometry relative="1" as="geometry" />
        </mxCell>
        <mxCell id="nwb41KQ4arSCl9Ie-RCh-75" style="edgeStyle=orthogonalEdgeStyle;rounded=0;orthogonalLoop=1;jettySize=auto;html=1;exitX=1;exitY=0;exitDx=0;exitDy=0;entryX=1;entryY=1;entryDx=0;entryDy=0;" edge="1" parent="1" source="nwb41KQ4arSCl9Ie-RCh-48" target="nwb41KQ4arSCl9Ie-RCh-47">
          <mxGeometry relative="1" as="geometry">
            <Array as="points">
              <mxPoint x="279" y="-110" />
              <mxPoint x="840" y="-110" />
              <mxPoint x="840" y="530" />
            </Array>
          </mxGeometry>
        </mxCell>
        <mxCell id="nwb41KQ4arSCl9Ie-RCh-48" value="транспортная коммпания" style="ellipse;whiteSpace=wrap;html=1;" vertex="1" parent="1">
          <mxGeometry x="202.5" y="-90" width="90" height="60" as="geometry" />
        </mxCell>
        <mxCell id="nwb41KQ4arSCl9Ie-RCh-54" style="edgeStyle=orthogonalEdgeStyle;rounded=0;orthogonalLoop=1;jettySize=auto;html=1;exitX=0.5;exitY=1;exitDx=0;exitDy=0;entryX=0.5;entryY=0;entryDx=0;entryDy=0;" edge="1" parent="1" source="nwb41KQ4arSCl9Ie-RCh-52" target="1ea317790d2ca983-9">
          <mxGeometry relative="1" as="geometry" />
        </mxCell>
        <mxCell id="nwb41KQ4arSCl9Ie-RCh-52" value="разгрузка" style="ellipse;whiteSpace=wrap;html=1;" vertex="1" parent="1">
          <mxGeometry x="207.5" y="50" width="80" height="50" as="geometry" />
        </mxCell>
        <mxCell id="nwb41KQ4arSCl9Ie-RCh-55" value="заказ о доставке недостающего товарпа" style="text;html=1;align=center;verticalAlign=middle;whiteSpace=wrap;rounded=0;" vertex="1" parent="1">
          <mxGeometry x="630" y="30" width="60" height="30" as="geometry" />
        </mxCell>
        <mxCell id="nwb41KQ4arSCl9Ie-RCh-56" value="передача для транспортировки" style="text;html=1;align=center;verticalAlign=middle;whiteSpace=wrap;rounded=0;" vertex="1" parent="1">
          <mxGeometry x="342.5" y="-100" width="60" height="30" as="geometry" />
        </mxCell>
        <mxCell id="nwb41KQ4arSCl9Ie-RCh-57" value="транспортировка до склада" style="text;html=1;align=center;verticalAlign=middle;whiteSpace=wrap;rounded=0;" vertex="1" parent="1">
          <mxGeometry x="150" y="-10" width="60" height="30" as="geometry" />
        </mxCell>
        <mxCell id="nwb41KQ4arSCl9Ie-RCh-59" value="заказ" style="text;html=1;align=center;verticalAlign=middle;whiteSpace=wrap;rounded=0;" vertex="1" parent="1">
          <mxGeometry x="600" y="470" width="60" height="30" as="geometry" />
        </mxCell>
        <mxCell id="nwb41KQ4arSCl9Ie-RCh-62" value="информация о состоянии заказа" style="text;html=1;align=center;verticalAlign=middle;whiteSpace=wrap;rounded=0;" vertex="1" parent="1">
          <mxGeometry x="570" y="410" width="60" height="30" as="geometry" />
        </mxCell>
        <mxCell id="nwb41KQ4arSCl9Ie-RCh-64" value="данные о налаичии заказа и о его статусе" style="text;html=1;align=center;verticalAlign=middle;whiteSpace=wrap;rounded=0;" vertex="1" parent="1">
          <mxGeometry x="690" y="220" width="60" height="30" as="geometry" />
        </mxCell>
        <mxCell id="nwb41KQ4arSCl9Ie-RCh-73" style="edgeStyle=orthogonalEdgeStyle;rounded=0;orthogonalLoop=1;jettySize=auto;html=1;exitX=0;exitY=1;exitDx=0;exitDy=0;entryX=0;entryY=0.5;entryDx=0;entryDy=0;" edge="1" parent="1" source="nwb41KQ4arSCl9Ie-RCh-69" target="nwb41KQ4arSCl9Ie-RCh-48">
          <mxGeometry relative="1" as="geometry">
            <Array as="points">
              <mxPoint x="209" y="530" />
              <mxPoint x="30" y="530" />
              <mxPoint x="30" y="-60" />
            </Array>
          </mxGeometry>
        </mxCell>
        <mxCell id="nwb41KQ4arSCl9Ie-RCh-69" value="отгрузка" style="ellipse;whiteSpace=wrap;html=1;" vertex="1" parent="1">
          <mxGeometry x="197.5" y="490" width="80" height="50" as="geometry" />
        </mxCell>
        <mxCell id="nwb41KQ4arSCl9Ie-RCh-72" value="Перемещение&amp;nbsp;&lt;div&gt;товара на основе задания&lt;/div&gt;" style="text;html=1;align=center;verticalAlign=middle;whiteSpace=wrap;rounded=0;" vertex="1" parent="1">
          <mxGeometry x="50" y="150" width="60" height="30" as="geometry" />
        </mxCell>
        <mxCell id="nwb41KQ4arSCl9Ie-RCh-74" value="передача товара в доставку" style="text;html=1;align=center;verticalAlign=middle;whiteSpace=wrap;rounded=0;" vertex="1" parent="1">
          <mxGeometry x="30" y="-100" width="60" height="30" as="geometry" />
        </mxCell>
        <mxCell id="nwb41KQ4arSCl9Ie-RCh-76" value="транспортировка до клиента" style="text;html=1;align=center;verticalAlign=middle;whiteSpace=wrap;rounded=0;" vertex="1" parent="1">
          <mxGeometry x="760" y="-80" width="60" height="30" as="geometry" />
        </mxCell>
        <mxCell id="nwb41KQ4arSCl9Ie-RCh-78" style="edgeStyle=orthogonalEdgeStyle;rounded=0;orthogonalLoop=1;jettySize=auto;html=1;exitX=1;exitY=1;exitDx=0;exitDy=0;entryX=0.249;entryY=0.076;entryDx=0;entryDy=0;entryPerimeter=0;" edge="1" parent="1" source="nwb41KQ4arSCl9Ie-RCh-48" target="nwb41KQ4arSCl9Ie-RCh-16">
          <mxGeometry relative="1" as="geometry">
            <Array as="points">
              <mxPoint x="279" y="30" />
              <mxPoint x="587" y="30" />
            </Array>
          </mxGeometry>
        </mxCell>
        <mxCell id="nwb41KQ4arSCl9Ie-RCh-79" value="накладные на доставляемый и получаемый товар товар&amp;nbsp;" style="text;html=1;align=center;verticalAlign=middle;whiteSpace=wrap;rounded=0;" vertex="1" parent="1">
          <mxGeometry x="331.25" y="-20" width="60" height="30" as="geometry" />
        </mxCell>
        <mxCell id="nwb41KQ4arSCl9Ie-RCh-80" value="" style="endArrow=classic;html=1;rounded=0;" edge="1" parent="1">
          <mxGeometry width="50" height="50" relative="1" as="geometry">
            <mxPoint x="280" y="30" as="sourcePoint" />
            <mxPoint x="280" y="-40" as="targetPoint" />
          </mxGeometry>
        </mxCell>
        <mxCell id="nwb41KQ4arSCl9Ie-RCh-83" style="edgeStyle=orthogonalEdgeStyle;rounded=0;orthogonalLoop=1;jettySize=auto;html=1;exitX=1;exitY=0.5;exitDx=0;exitDy=0;entryX=0;entryY=0.286;entryDx=0;entryDy=0;entryPerimeter=0;" edge="1" parent="1" source="nwb41KQ4arSCl9Ie-RCh-14" target="nwb41KQ4arSCl9Ie-RCh-16">
          <mxGeometry relative="1" as="geometry" />
        </mxCell>
        <mxCell id="nwb41KQ4arSCl9Ie-RCh-24" value="Передача&lt;div&gt;сформированного задания&amp;nbsp;&lt;/div&gt;" style="text;html=1;align=center;verticalAlign=middle;whiteSpace=wrap;rounded=0;" vertex="1" parent="1">
          <mxGeometry x="170" y="260" width="60" height="30" as="geometry" />
        </mxCell>
        <mxCell id="nwb41KQ4arSCl9Ie-RCh-93" value="интерфейс управления" style="ellipse;whiteSpace=wrap;html=1;" vertex="1" parent="1">
          <mxGeometry x="730" y="100" width="90" height="60" as="geometry" />
        </mxCell>
        <mxCell id="nwb41KQ4arSCl9Ie-RCh-95" value="получение статистики о работе склада" style="text;html=1;align=center;verticalAlign=middle;whiteSpace=wrap;rounded=0;" vertex="1" parent="1">
          <mxGeometry x="630" y="140" width="60" height="30" as="geometry" />
        </mxCell>
      </root>
    </mxGraphModel>
  </diagram>
</mxfile>
